<svg width="18" height="18" viewBox="0 0 18 18" fill="none" xmlns="http://www.w3.org/2000/svg">
<path d="M1.50085 6.75073C1.50085 5.09388 2.844 3.75073 4.50085 3.75073H4.66752C5.533 3.75073 6.37514 4.03144 7.06752 4.55073L7.93419 5.20073C8.62657 5.72002 9.46871 6.00073 10.3342 6.00073H13.5009C15.1577 6.00073 16.5009 7.34388 16.5009 9.00073V13.5007C16.5009 15.1576 15.1577 16.5007 13.5009 16.5007H4.50085C2.844 16.5007 1.50085 15.1576 1.50085 13.5007V6.75073Z" stroke="#A5A5A5" stroke-width="1.5"/>
<path d="M4.5 3.75073H10.3887C11.4804 3.75073 12.5246 4.19694 13.2792 4.98584L14.25 6.00073" stroke="#A5A5A5" stroke-width="1.5"/>
<path d="M11.1213 11.1213L9.35355 9.35355C9.15829 9.15829 8.84171 9.15829 8.64645 9.35355L6.87868 11.1213" stroke="#A5A5A5" stroke-width="1.5" stroke-linecap="round"/>
<path d="M9 9.74927V13.4993" stroke="#A5A5A5" stroke-width="1.5" stroke-linecap="round"/>
</svg>
