<svg width="24" height="24" viewBox="0 0 24 24" fill="none" xmlns="http://www.w3.org/2000/svg">
<path d="M19 11C19.2652 11 19.5196 11.1054 19.7071 11.2929C19.8946 11.4804 20 11.7348 20 12V20C19.9999 20.1751 19.9539 20.3472 19.8665 20.4989C19.7791 20.6506 19.6533 20.7767 19.5019 20.8646C19.3504 20.9525 19.1785 20.9991 19.0034 20.9997C18.8283 21.0003 18.6561 20.9549 18.504 20.868L12 17.151L5.496 20.868C5.34394 20.9549 5.17174 21.0003 4.99662 20.9997C4.8215 20.9991 4.64961 20.9525 4.49814 20.8646C4.34667 20.7767 4.22094 20.6506 4.13352 20.4989C4.0461 20.3472 4.00006 20.1751 4 20V12C4 11.7348 4.10536 11.4804 4.29289 11.2929C4.48043 11.1054 4.73478 11 5 11H19ZM19 3C19.2652 3 19.5196 3.10536 19.7071 3.29289C19.8946 3.48043 20 3.73478 20 4C20 4.26522 19.8946 4.51957 19.7071 4.70711C19.5196 4.89464 19.2652 5 19 5H5C4.73478 5 4.48043 4.89464 4.29289 4.70711C4.10536 4.51957 4 4.26522 4 4C4 3.73478 4.10536 3.48043 4.29289 3.29289C4.48043 3.10536 4.73478 3 5 3H19ZM19 7C19.2652 7 19.5196 7.10536 19.7071 7.29289C19.8946 7.48043 20 7.73478 20 8C20 8.26522 19.8946 8.51957 19.7071 8.70711C19.5196 8.89464 19.2652 9 19 9H5C4.73478 9 4.48043 8.89464 4.29289 8.70711C4.10536 8.51957 4 8.26522 4 8C4 7.73478 4.10536 7.48043 4.29289 7.29289C4.48043 7.10536 4.73478 7 5 7H19Z" fill="#FF6719"/>
</svg>
