<svg width="26" height="26" viewBox="0 0 26 26" fill="none" xmlns="http://www.w3.org/2000/svg">
<path fill-rule="evenodd" clip-rule="evenodd" d="M4.875 1.625C4.01305 1.625 3.1864 1.96741 2.5769 2.5769C1.96741 3.1864 1.625 4.01305 1.625 4.875V21.125C1.625 21.987 1.96741 22.8136 2.5769 23.4231C3.1864 24.0326 4.01305 24.375 4.875 24.375H21.125C21.987 24.375 22.8136 24.0326 23.4231 23.4231C24.0326 22.8136 24.375 21.987 24.375 21.125V4.875C24.375 4.01305 24.0326 3.1864 23.4231 2.5769C22.8136 1.96741 21.987 1.625 21.125 1.625H4.875ZM6.66575 8.60763C7.18077 8.60763 7.67469 8.40303 8.03886 8.03886C8.40303 7.67469 8.60763 7.18077 8.60763 6.66575C8.60763 6.15073 8.40303 5.65681 8.03886 5.29264C7.67469 4.92846 7.18077 4.72388 6.66575 4.72388C6.15073 4.72388 5.65681 4.92846 5.29264 5.29264C4.92846 5.65681 4.72388 6.15073 4.72388 6.66575C4.72388 7.18077 4.92846 7.67469 5.29264 8.03886C5.65681 8.40303 6.15073 8.60763 6.66575 8.60763ZM8.29075 20.8211V10.1302H5.04075V20.8211H8.29075ZM10.4487 10.1302H13.6988V11.5619C14.1781 10.8111 15.2311 9.80037 17.1892 9.80037C19.526 9.80037 20.7951 11.349 20.7951 14.2951C20.7951 14.4365 20.8081 15.0816 20.8081 15.0816V20.8195H17.5581V15.0832C17.5581 14.2951 17.3924 12.7465 15.6406 12.7465C13.8872 12.7465 13.7394 14.6933 13.6988 15.9673V20.8195H10.4487V10.1302Z" fill="#0A66C2"/>
</svg>
