<svg width="19" height="21" viewBox="0 0 19 21" fill="none" xmlns="http://www.w3.org/2000/svg">
<path d="M7 15.5C7 16.596 7.271 17.629 7.75 18.535V19.25C7.74994 19.44 7.67776 19.6229 7.54803 19.7618C7.4183 19.9006 7.2407 19.9851 7.05112 19.998C6.86154 20.011 6.67411 19.9515 6.5267 19.8316C6.37929 19.7117 6.2829 19.5402 6.257 19.352L6.25 19.25V16.982C4.59152 16.8588 3.03687 16.1278 1.88421 14.929C0.73155 13.7302 0.0620134 12.148 0.00400019 10.486L0 10.25V9.75C5.82426e-05 9.55998 0.0722443 9.37706 0.201972 9.23821C0.331701 9.09936 0.509299 9.01493 0.69888 9.00197C0.888462 8.98902 1.07589 9.04852 1.2233 9.16843C1.37071 9.28835 1.4671 9.45975 1.493 9.648L1.5 9.75V10.25C1.49989 11.6051 2.02372 12.9077 2.96194 13.8854C3.90015 14.8632 5.18008 15.4402 6.534 15.496L6.75 15.5H7ZM11 4V9.498C10.4504 9.72739 9.93489 10.0312 9.468 10.401C9.48933 10.271 9.5 10.1373 9.5 10V4C9.5 3.33696 9.23661 2.70107 8.76777 2.23223C8.29893 1.76339 7.66304 1.5 7 1.5C6.33696 1.5 5.70107 1.76339 5.23223 2.23223C4.76339 2.70107 4.5 3.33696 4.5 4V10C4.49993 10.3973 4.59453 10.7889 4.77598 11.1423C4.95742 11.4957 5.22048 11.8008 5.54336 12.0323C5.86623 12.2637 6.23962 12.4149 6.63259 12.4733C7.02555 12.5317 7.42677 12.4956 7.803 12.368C7.52145 12.88 7.31021 13.4276 7.175 13.996L7 14C5.93913 14 4.92172 13.5786 4.17157 12.8284C3.42143 12.0783 3 11.0609 3 10V4C3 2.93913 3.42143 1.92172 4.17157 1.17157C4.92172 0.421427 5.93913 0 7 0C8.06087 0 9.07828 0.421427 9.82843 1.17157C10.5786 1.92172 11 2.93913 11 4ZM16 15.5C16 16.163 15.7366 16.7989 15.2678 17.2678C14.7989 17.7366 14.163 18 13.5 18C12.837 18 12.2011 17.7366 11.7322 17.2678C11.2634 16.7989 11 16.163 11 15.5C11 14.837 11.2634 14.2011 11.7322 13.7322C12.2011 13.2634 12.837 13 13.5 13C14.163 13 14.7989 13.2634 15.2678 13.7322C15.7366 14.2011 16 14.837 16 15.5ZM19 15.5C19 16.9587 18.4205 18.3576 17.3891 19.3891C16.3576 20.4205 14.9587 21 13.5 21C12.0413 21 10.6424 20.4205 9.61091 19.3891C8.57946 18.3576 8 16.9587 8 15.5C8 14.0413 8.57946 12.6424 9.61091 11.6109C10.6424 10.5795 12.0413 10 13.5 10C14.9587 10 16.3576 10.5795 17.3891 11.6109C18.4205 12.6424 19 14.0413 19 15.5ZM9.5 15.5C9.5 16.5609 9.92143 17.5783 10.6716 18.3284C11.4217 19.0786 12.4391 19.5 13.5 19.5C14.5609 19.5 15.5783 19.0786 16.3284 18.3284C17.0786 17.5783 17.5 16.5609 17.5 15.5C17.5 14.4391 17.0786 13.4217 16.3284 12.6716C15.5783 11.9214 14.5609 11.5 13.5 11.5C12.4391 11.5 11.4217 11.9214 10.6716 12.6716C9.92143 13.4217 9.5 14.4391 9.5 15.5Z" fill="#A5A5A5"/>
</svg>
